M48
; DRILL file {KiCad 9.0.6} date 2025-11-28T23:16:45+0100
; FORMAT={-:-/ absolute / inch / decimal}
; #@! TF.CreationDate,2025-11-28T23:16:45+01:00
; #@! TF.GenerationSoftware,Kicad,Pcbnew,9.0.6
; #@! TF.FileFunction,Plated,1,2,PTH
FMAT,2
INCH
; #@! TA.AperFunction,Plated,PTH,ViaDrill
T1C0.0157
; #@! TA.AperFunction,Plated,PTH,ComponentDrill
T2C0.0315
; #@! TA.AperFunction,Plated,PTH,ComponentDrill
T3C0.0394
; #@! TA.AperFunction,Plated,PTH,ComponentDrill
T4C0.0433
; #@! TA.AperFunction,Plated,PTH,ComponentDrill
T5C0.0512
%
G90
G05
T1
X-1.0724Y0.6356
X-0.9484Y-0.4104
X-0.9164Y-0.7344
X-0.7375Y0.3527
X-0.65Y-0.6989
X-0.5464Y0.8376
X-0.5464Y0.5626
X-0.5084Y0.4036
X-0.5084Y0.3156
X-0.5024Y-0.0284
X-0.4564Y0.4036
X-0.4564Y0.3156
X-0.4564Y-1.1374
X-0.4514Y-1.2274
X-0.2996Y-1.2892
X-0.2504Y0.1156
X-0.2504Y-0.0274
X-0.0514Y-0.0464
X-0.0464Y1.1376
X0.0386Y-0.0464
X0.1286Y-0.0464
X0.2086Y-0.0824
X0.2536Y-0.0624
X0.3306Y-0.5994
X0.4436Y0.1826
X0.4436Y-0.2364
X0.4731Y0.2172
X0.4876Y-1.0824
X0.4916Y-0.7124
X0.4916Y-0.8384
X0.4916Y-0.9604
X0.5033Y0.2424
X0.5056Y1.0636
X0.506Y0.9358
X0.506Y0.8008
X0.5064Y0.0405
X0.5236Y0.0821
X0.5336Y0.2676
X0.5642Y0.0821
X0.5686Y-0.3944
X0.6161Y0.0821
X0.6265Y0.3609
X0.65Y-0.2364
X0.7136Y-0.4304
X0.7265Y0.7608
X0.7541Y-0.1824
X0.7765Y-0.0213
X0.7836Y-0.3674
X0.7976Y-0.4164
X0.8133Y-0.7787
X0.8265Y0.7608
X0.8265Y-0.1674
X0.8336Y-0.8124
X0.8496Y-0.5904
X0.8515Y-0.8841
X0.9756Y-0.2924
X0.9886Y-0.6324
X1.0236Y-0.5924
X1.066Y-0.6192
X1.0664Y-0.8152
X1.0991Y0.2361
X1.0996Y-0.0737
X1.107Y-0.1884
X1.1725Y-0.1874
X1.1736Y-0.2774
T2
X0.6744Y0.5409
X0.8665Y0.5409
T3
X-0.9486Y0.8309
X-0.9486Y0.575
X-0.874Y0.1626
X-0.874Y0.0626
X-0.874Y-0.0374
X-0.874Y-0.1374
X-0.874Y-0.2374
X-0.7714Y0.8309
X-0.7714Y0.575
X-0.1964Y1.2376
X-0.1464Y0.2476
X-0.1028Y-1.2124
X-0.0964Y1.2376
X-0.0944Y-0.2884
X-0.0464Y0.2476
X-0.0028Y-1.2124
X0.0036Y1.2376
X0.0056Y-0.2884
X0.0536Y0.2476
X0.0972Y-1.2124
X0.1036Y1.2376
X0.1056Y-0.2884
X0.1536Y0.2476
X0.2036Y1.2376
T4
X-0.7822Y-0.9523
X-0.7003Y-1.0097
X-0.6184Y-1.0671
T5
X-0.6764Y0.1726
X-0.6764Y-0.4274
M30
