%TF.GenerationSoftware,KiCad,Pcbnew,9.0.6*%
%TF.CreationDate,2025-11-28T23:16:45+01:00*%
%TF.ProjectId,Ruderlage,52756465-726c-4616-9765-2e6b69636164,rev?*%
%TF.SameCoordinates,Original*%
%TF.FileFunction,Soldermask,Top*%
%TF.FilePolarity,Negative*%
%FSLAX46Y46*%
G04 Gerber Fmt 4.6, Leading zero omitted, Abs format (unit mm)*
G04 Created by KiCad (PCBNEW 9.0.6) date 2025-11-28 23:16:45*
%MOMM*%
%LPD*%
G01*
G04 APERTURE LIST*
G04 Aperture macros list*
%AMRoundRect*
0 Rectangle with rounded corners*
0 $1 Rounding radius*
0 $2 $3 $4 $5 $6 $7 $8 $9 X,Y pos of 4 corners*
0 Add a 4 corners polygon primitive as box body*
4,1,4,$2,$3,$4,$5,$6,$7,$8,$9,$2,$3,0*
0 Add four circle primitives for the rounded corners*
1,1,$1+$1,$2,$3*
1,1,$1+$1,$4,$5*
1,1,$1+$1,$6,$7*
1,1,$1+$1,$8,$9*
0 Add four rect primitives between the rounded corners*
20,1,$1+$1,$2,$3,$4,$5,0*
20,1,$1+$1,$4,$5,$6,$7,0*
20,1,$1+$1,$6,$7,$8,$9,0*
20,1,$1+$1,$8,$9,$2,$3,0*%
%AMHorizOval*
0 Thick line with rounded ends*
0 $1 width*
0 $2 $3 position (X,Y) of the first rounded end (center of the circle)*
0 $4 $5 position (X,Y) of the second rounded end (center of the circle)*
0 Add line between two ends*
20,1,$1,$2,$3,$4,$5,0*
0 Add two circle primitives to create the rounded ends*
1,1,$1,$2,$3*
1,1,$1,$4,$5*%
%AMRotRect*
0 Rectangle, with rotation*
0 The origin of the aperture is its center*
0 $1 length*
0 $2 width*
0 $3 Rotation angle, in degrees counterclockwise*
0 Add horizontal line*
21,1,$1,$2,0,0,$3*%
%AMFreePoly0*
4,1,23,0.500000,-0.750000,0.000000,-0.750000,0.000000,-0.745722,-0.065263,-0.745722,-0.191342,-0.711940,-0.304381,-0.646677,-0.396677,-0.554381,-0.461940,-0.441342,-0.495722,-0.315263,-0.495722,-0.250000,-0.500000,-0.250000,-0.500000,0.250000,-0.495722,0.250000,-0.495722,0.315263,-0.461940,0.441342,-0.396677,0.554381,-0.304381,0.646677,-0.191342,0.711940,-0.065263,0.745722,0.000000,0.745722,
0.000000,0.750000,0.500000,0.750000,0.500000,-0.750000,0.500000,-0.750000,$1*%
%AMFreePoly1*
4,1,23,0.000000,0.745722,0.065263,0.745722,0.191342,0.711940,0.304381,0.646677,0.396677,0.554381,0.461940,0.441342,0.495722,0.315263,0.495722,0.250000,0.500000,0.250000,0.500000,-0.250000,0.495722,-0.250000,0.495722,-0.315263,0.461940,-0.441342,0.396677,-0.554381,0.304381,-0.646677,0.191342,-0.711940,0.065263,-0.745722,0.000000,-0.745722,0.000000,-0.750000,-0.500000,-0.750000,
-0.500000,0.750000,0.000000,0.750000,0.000000,0.745722,0.000000,0.745722,$1*%
G04 Aperture macros list end*
%ADD10RoundRect,0.150000X-0.587500X-0.150000X0.587500X-0.150000X0.587500X0.150000X-0.587500X0.150000X0*%
%ADD11RoundRect,0.250000X-0.475000X0.250000X-0.475000X-0.250000X0.475000X-0.250000X0.475000X0.250000X0*%
%ADD12RoundRect,0.137500X-0.139439X-0.599552X0.386607X0.479000X0.139439X0.599552X-0.386607X-0.479000X0*%
%ADD13RoundRect,0.137500X0.479000X-0.386607X0.599552X-0.139439X-0.479000X0.386607X-0.599552X0.139439X0*%
%ADD14RoundRect,0.250000X0.250000X0.475000X-0.250000X0.475000X-0.250000X-0.475000X0.250000X-0.475000X0*%
%ADD15R,1.700000X1.700000*%
%ADD16C,1.700000*%
%ADD17FreePoly0,180.000000*%
%ADD18FreePoly1,180.000000*%
%ADD19RoundRect,0.250000X-0.262500X-0.450000X0.262500X-0.450000X0.262500X0.450000X-0.262500X0.450000X0*%
%ADD20RoundRect,0.250000X0.159099X-0.512652X0.512652X-0.159099X-0.159099X0.512652X-0.512652X0.159099X0*%
%ADD21RoundRect,0.250000X-0.159099X0.512652X-0.512652X0.159099X0.159099X-0.512652X0.512652X-0.159099X0*%
%ADD22RoundRect,0.250000X-0.450000X0.262500X-0.450000X-0.262500X0.450000X-0.262500X0.450000X0.262500X0*%
%ADD23RoundRect,0.250000X1.050000X-1.050000X1.050000X1.050000X-1.050000X1.050000X-1.050000X-1.050000X0*%
%ADD24C,2.600000*%
%ADD25RoundRect,0.150000X0.825000X0.150000X-0.825000X0.150000X-0.825000X-0.150000X0.825000X-0.150000X0*%
%ADD26RoundRect,0.250000X0.450000X-0.262500X0.450000X0.262500X-0.450000X0.262500X-0.450000X-0.262500X0*%
%ADD27RotRect,1.905000X2.000000X325.000000*%
%ADD28HorizOval,1.905000X-0.027245X-0.038910X0.027245X0.038910X0*%
%ADD29RoundRect,0.250000X-0.250000X-0.475000X0.250000X-0.475000X0.250000X0.475000X-0.250000X0.475000X0*%
%ADD30RoundRect,0.250000X0.262500X0.450000X-0.262500X0.450000X-0.262500X-0.450000X0.262500X-0.450000X0*%
%ADD31RoundRect,0.150000X0.150000X-0.587500X0.150000X0.587500X-0.150000X0.587500X-0.150000X-0.587500X0*%
%ADD32C,1.500000*%
%ADD33RoundRect,0.243750X-0.243750X-0.456250X0.243750X-0.456250X0.243750X0.456250X-0.243750X0.456250X0*%
%ADD34RoundRect,0.250000X0.475000X-0.250000X0.475000X0.250000X-0.475000X0.250000X-0.475000X-0.250000X0*%
%ADD35RoundRect,0.150000X-0.150000X0.875000X-0.150000X-0.875000X0.150000X-0.875000X0.150000X0.875000X0*%
G04 APERTURE END LIST*
%TO.C,JP4*%
G36*
X14704000Y-22020000D02*
G01*
X14404000Y-22020000D01*
X14404000Y-20520000D01*
X14704000Y-20520000D01*
X14704000Y-22020000D01*
G37*
%TO.C,JP1*%
G36*
X15491400Y26265400D02*
G01*
X15191400Y26265400D01*
X15191400Y27765400D01*
X15491400Y27765400D01*
X15491400Y26265400D01*
G37*
%TO.C,JP5*%
G36*
X14704000Y-25152666D02*
G01*
X14404000Y-25152666D01*
X14404000Y-23652666D01*
X14704000Y-23652666D01*
X14704000Y-25152666D01*
G37*
%TO.C,JP6*%
G36*
X14607000Y-28285333D02*
G01*
X14307000Y-28285333D01*
X14307000Y-26785333D01*
X14607000Y-26785333D01*
X14607000Y-28285333D01*
G37*
%TO.C,JP2*%
G36*
X15528269Y23018650D02*
G01*
X15228269Y23018650D01*
X15228269Y24518650D01*
X15528269Y24518650D01*
X15528269Y23018650D01*
G37*
%TO.C,JP3*%
G36*
X15528269Y19589650D02*
G01*
X15228269Y19589650D01*
X15228269Y21089650D01*
X15528269Y21089650D01*
X15528269Y19589650D01*
G37*
%TO.C,JP7*%
G36*
X14704000Y-18887333D02*
G01*
X14404000Y-18887333D01*
X14404000Y-17387333D01*
X14704000Y-17387333D01*
X14704000Y-18887333D01*
G37*
%TD*%
D10*
%TO.C,D2*%
X-22741300Y-14376400D03*
X-22741300Y-16276400D03*
X-20866300Y-15326400D03*
%TD*%
D11*
%TO.C,C9*%
X3266000Y1966000D03*
X3266000Y66000D03*
%TD*%
D10*
%TO.C,Q1*%
X-18550300Y-14376400D03*
X-18550300Y-16276400D03*
X-16675300Y-15326400D03*
%TD*%
D12*
%TO.C,U4*%
X16004926Y-14940141D03*
X16723961Y-15290838D03*
X17442996Y-15641535D03*
X18162031Y-15992232D03*
X18881067Y-16342929D03*
X19600102Y-16693626D03*
X20319137Y-17044323D03*
X21038172Y-17395019D03*
D13*
X22860060Y-16767693D03*
X23210757Y-16048658D03*
X23561454Y-15329623D03*
X23912151Y-14610588D03*
X24262848Y-13891552D03*
X24613545Y-13172517D03*
X24964242Y-12453482D03*
X25314938Y-11734447D03*
D12*
X24687612Y-9912559D03*
X23968577Y-9561862D03*
X23249542Y-9211165D03*
X22530507Y-8860468D03*
X21811471Y-8509771D03*
X21092436Y-8159074D03*
X20373401Y-7808377D03*
X19654366Y-7457681D03*
D13*
X17832478Y-8085007D03*
X17481781Y-8804042D03*
X17131084Y-9523077D03*
X16780387Y-10242112D03*
X16429690Y-10961148D03*
X16078993Y-11680183D03*
X15728296Y-12399218D03*
X15377600Y-13118253D03*
%TD*%
D14*
%TO.C,C5*%
X29817000Y-230000D03*
X27917000Y-230000D03*
%TD*%
D15*
%TO.C,SW1*%
X-24094000Y14605649D03*
D16*
X-24094000Y21105649D03*
X-19594000Y14605649D03*
X-19594000Y21105649D03*
%TD*%
D17*
%TO.C,JP4*%
X15204000Y-21270000D03*
D18*
X13904000Y-21270000D03*
%TD*%
D15*
%TO.C,J4*%
X-2611731Y-30795000D03*
D16*
X-71731Y-30795000D03*
X2468269Y-30795000D03*
%TD*%
D19*
%TO.C,R3*%
X-12886500Y-4125000D03*
X-11061500Y-4125000D03*
%TD*%
D15*
%TO.C,J5*%
X5171000Y31435000D03*
D16*
X2631000Y31435000D03*
X91000Y31435000D03*
X-2449000Y31435001D03*
X-4989000Y31435000D03*
%TD*%
D20*
%TO.C,C7*%
X25491498Y-18845502D03*
X26835000Y-17502000D03*
%TD*%
D21*
%TO.C,C6*%
X25474751Y-21588849D03*
X24131249Y-22932351D03*
%TD*%
D17*
%TO.C,JP1*%
X15991400Y27015400D03*
D18*
X14691400Y27015400D03*
%TD*%
D22*
%TO.C,R5*%
X-22616600Y-10426100D03*
X-22616600Y-12251100D03*
%TD*%
D19*
%TO.C,R14*%
X9368500Y-27493000D03*
X11193500Y-27493000D03*
%TD*%
D23*
%TO.C,D1*%
X-17181000Y-10856000D03*
D24*
X-17181000Y4384000D03*
%TD*%
D17*
%TO.C,JP5*%
X15204000Y-24402666D03*
D18*
X13904000Y-24402666D03*
%TD*%
D17*
%TO.C,JP6*%
X15107000Y-27535333D03*
D18*
X13807000Y-27535333D03*
%TD*%
D25*
%TO.C,U2*%
X-4749200Y-1915200D03*
X-4749200Y-645200D03*
X-4749200Y624800D03*
X-4749200Y1894800D03*
X-9699200Y1894800D03*
X-9699200Y624800D03*
X-9699200Y-645200D03*
X-9699200Y-1915200D03*
%TD*%
D14*
%TO.C,C13*%
X-19837800Y-18603000D03*
X-21737800Y-18603000D03*
%TD*%
%TO.C,C1*%
X22947269Y17672650D03*
X21047269Y17672650D03*
%TD*%
D17*
%TO.C,JP2*%
X16028269Y23768650D03*
D18*
X14728269Y23768650D03*
%TD*%
D14*
%TO.C,C14*%
X-7849000Y-31176000D03*
X-9749000Y-31176000D03*
%TD*%
D26*
%TO.C,R4*%
X-27239400Y12945700D03*
X-27239400Y14770700D03*
%TD*%
D19*
%TO.C,R12*%
X10670769Y22117650D03*
X12495769Y22117650D03*
%TD*%
D11*
%TO.C,C10*%
X980000Y1966000D03*
X980000Y66000D03*
%TD*%
D14*
%TO.C,C4*%
X29817000Y2056000D03*
X27917000Y2056000D03*
%TD*%
D27*
%TO.C,U6*%
X-19868407Y-24189565D03*
D28*
X-17787761Y-25646449D03*
X-15707115Y-27103333D03*
%TD*%
D15*
%TO.C,J3*%
X-22198731Y4130000D03*
D16*
X-22198731Y1590000D03*
X-22198731Y-950000D03*
X-22198731Y-3490000D03*
X-22198731Y-6030000D03*
%TD*%
D29*
%TO.C,C2*%
X16602269Y17672650D03*
X18502269Y17672650D03*
%TD*%
D30*
%TO.C,R6*%
X-15379500Y21275000D03*
X-17204500Y21275000D03*
%TD*%
D31*
%TO.C,U3*%
X-9749000Y-28857850D03*
X-7849000Y-28857850D03*
X-8799000Y-26982850D03*
%TD*%
D15*
%TO.C,J2*%
X-2398200Y-7325400D03*
D16*
X141800Y-7325400D03*
X2681800Y-7325400D03*
%TD*%
D17*
%TO.C,JP3*%
X16028269Y20339650D03*
D18*
X14728269Y20339650D03*
%TD*%
D32*
%TO.C,Y1*%
X22009000Y13740000D03*
X17129000Y13740000D03*
%TD*%
D15*
%TO.C,J1*%
X-3719000Y6289000D03*
D16*
X-1179000Y6289000D03*
X1361000Y6289000D03*
X3901000Y6289000D03*
%TD*%
D30*
%TO.C,R10*%
X25703769Y-5141000D03*
X23878769Y-5141000D03*
%TD*%
D19*
%TO.C,R15*%
X9465500Y-18095000D03*
X11290500Y-18095000D03*
%TD*%
D10*
%TO.C,D5*%
X-22224400Y9905400D03*
X-22224400Y8005400D03*
X-20349400Y8955400D03*
%TD*%
D33*
%TO.C,D3*%
X-17229500Y16576000D03*
X-15354500Y16576000D03*
%TD*%
D19*
%TO.C,R13*%
X10670769Y18688650D03*
X12495769Y18688650D03*
%TD*%
%TO.C,R9*%
X9465500Y-24360333D03*
X11290500Y-24360333D03*
%TD*%
D14*
%TO.C,C3*%
X29817000Y4342000D03*
X27917000Y4342000D03*
%TD*%
D30*
%TO.C,R7*%
X-15379500Y14290000D03*
X-17204500Y14290000D03*
%TD*%
%TO.C,R2*%
X29740469Y-8641750D03*
X27915469Y-8641750D03*
%TD*%
D17*
%TO.C,JP7*%
X15204000Y-18137333D03*
D18*
X13904000Y-18137333D03*
%TD*%
D34*
%TO.C,C12*%
X-16509400Y-20924600D03*
X-16509400Y-19024600D03*
%TD*%
D11*
%TO.C,C11*%
X-1306000Y1966000D03*
X-1306000Y66000D03*
%TD*%
D35*
%TO.C,U1*%
X26073000Y6960000D03*
X24803000Y6960000D03*
X23533000Y6960000D03*
X22263000Y6960000D03*
X20993000Y6960000D03*
X19723000Y6960000D03*
X18453000Y6960000D03*
X17183000Y6960000D03*
X15913000Y6960000D03*
X15913000Y-2340000D03*
X17183000Y-2340000D03*
X18453000Y-2340000D03*
X19723000Y-2340000D03*
X20993000Y-2340000D03*
X22263000Y-2340000D03*
X23533000Y-2340000D03*
X24803000Y-2340000D03*
X26073000Y-2340000D03*
%TD*%
D21*
%TO.C,C8*%
X24068600Y-20177800D03*
X22725098Y-21521302D03*
%TD*%
D33*
%TO.C,D4*%
X-17229500Y18989000D03*
X-15354500Y18989000D03*
%TD*%
D19*
%TO.C,R1*%
X10735500Y28768000D03*
X12560500Y28768000D03*
%TD*%
%TO.C,R11*%
X10670769Y25419650D03*
X12495769Y25419650D03*
%TD*%
%TO.C,R8*%
X9442000Y-21227667D03*
X11267000Y-21227667D03*
%TD*%
M02*
